D:\school\WTK\thesis\model\3dpredictsim\Results\batch_windlass\Pog_s1_tmt_bCst_d00_k800_WL30_ig24_act_TTC_GRF.mot
nRows=17
nColumns=19

name D:\school\WTK\thesis\model\3dpredictsim\Results\batch_windlass\Pog_s1_tmt_bCst_d00_k800_WL30_ig24_act_TTC_GRF.mot
datacolumns 19
datarows 17
range 0.0000000000 0.1995542509
endheader
time 	ground_force_vx	ground_force_vy	ground_force_vz	ground_force_px	ground_force_py	ground_force_pz	1_ground_force_vx	1_ground_force_vy	1_ground_force_vz	1_ground_force_px	1_ground_force_py	1_ground_force_pz	ground_torque_x	ground_torque_y	ground_torque_z	1_ground_torque_x	1_ground_torque_y	1_ground_torque_z
        0.0000000000	      -65.1852478618	       52.6634758489	       15.7256763946	        0.1662894723	        0.0000000000	        0.0595089860	       52.8084044192	      245.0778234026	       -6.6968809013	       -0.3759663109	        0.0000000000	       -0.0240889142	        0.0000000000	        0.0000000000	        0.0000000000	        0.0000000000	        0.0000000000	        0.0000000000	
        0.0124721407	     -150.2511155964	      157.7766819617	       50.8104059620	        0.1773896716	        0.0000000000	        0.0584158456	       35.2306291739	      196.4473154206	      -17.8182112304	       -0.3727457493	        0.0000000000	       -0.0226818866	        0.0000000000	        0.0000000000	        0.0000000000	        0.0000000000	        0.0000000000	        0.0000000000	
        0.0249442814	      -97.0315580793	      458.7620083045	        1.7212633536	        0.1942875345	        0.0000000000	        0.0589422036	       30.0785647336	      147.0742954572	      -16.4093783521	       -0.3724665696	        0.0000000000	       -0.0226551716	        0.0000000000	        0.0000000000	        0.0000000000	        0.0000000000	        0.0000000000	        0.0000000000	
        0.0374164221	     -126.8126843566	      802.0109653030	      -24.3218253688	        0.2052117445	        0.0000000000	        0.0604626634	       14.6905371232	       84.1196434119	      -11.6568975191	       -0.3726330169	        0.0000000000	       -0.0226155859	        0.0000000000	        0.0000000000	        0.0000000000	        0.0000000000	        0.0000000000	        0.0000000000	
        0.0498885627	     -168.8609421951	      987.8196018483	      -31.3810804646	        0.2132653962	        0.0000000000	        0.0607810404	       -4.6635841386	       15.5917055267	       -2.5105998521	       -0.3759753952	        0.0000000000	       -0.0223362878	        0.0000000000	        0.0000000000	        0.0000000000	        0.0000000000	        0.0000000000	        0.0000000000	
        0.0623607034	     -189.5078155349	     1050.5381711577	      -30.0597712146	        0.2239934726	        0.0000000000	        0.0597672693	        0.0008265406	       -0.0007322369	       -0.0000629960	        0.0000000000	        0.0000000000	        0.0000000000	        0.0000000000	        0.0000000000	        0.0000000000	        0.0000000000	        0.0000000000	        0.0000000000	
        0.0748328441	     -173.4864940302	      984.8504791517	      -26.6561281930	        0.2318160881	        0.0000000000	        0.0587048886	        0.0005556332	       -0.0004263002	       -0.0000441291	        0.0000000000	        0.0000000000	        0.0000000000	        0.0000000000	        0.0000000000	        0.0000000000	        0.0000000000	        0.0000000000	        0.0000000000	
        0.0873049848	     -144.5452809035	      876.8317356556	      -24.8900042625	        0.2361078678	        0.0000000000	        0.0579673328	        0.0015346838	       -0.0009818305	       -0.0001434621	        0.0000000000	        0.0000000000	        0.0000000000	        0.0000000000	        0.0000000000	        0.0000000000	        0.0000000000	        0.0000000000	        0.0000000000	
        0.0997771255	     -120.5016935880	      787.0046246522	      -22.4190032157	        0.2396166417	        0.0000000000	        0.0575581039	        0.0222379019	       -0.0129087292	       -0.0020705598	        0.0000000000	        0.0000000000	        0.0000000000	        0.0000000000	        0.0000000000	        0.0000000000	        0.0000000000	        0.0000000000	        0.0000000000	
        0.1122492662	     -102.8632567885	      724.9886718921	      -21.4486627376	        0.2430022008	        0.0000000000	        0.0572811433	       -0.0962207429	        0.0523127730	        0.0085455028	        0.0000000000	        0.0000000000	        0.0000000000	        0.0000000000	        0.0000000000	        0.0000000000	        0.0000000000	        0.0000000000	        0.0000000000	
        0.1247214068	      -89.1738159532	      682.7704058571	      -20.9341561721	        0.2461546204	        0.0000000000	        0.0571025311	       -0.0658511999	        0.0344505208	        0.0053674535	        0.0000000000	        0.0000000000	        0.0000000000	        0.0000000000	        0.0000000000	        0.0000000000	        0.0000000000	        0.0000000000	        0.0000000000	
        0.1371935475	      -76.8562835106	      653.4618947303	      -21.1577152367	        0.2491693169	        0.0000000000	        0.0569804355	       -0.0346727452	        0.0176790683	        0.0025213735	        0.0000000000	        0.0000000000	        0.0000000000	        0.0000000000	        0.0000000000	        0.0000000000	        0.0000000000	        0.0000000000	        0.0000000000	
        0.1496656882	      -65.3020893894	      631.7492906319	      -21.6765473971	        0.2523916473	        0.0000000000	        0.0568621834	       -0.0210444909	        0.0104557546	        0.0014390346	        0.0000000000	        0.0000000000	        0.0000000000	        0.0000000000	        0.0000000000	        0.0000000000	        0.0000000000	        0.0000000000	        0.0000000000	
        0.1621378289	      -55.1230720765	      613.3448944159	      -21.2665790479	        0.2558883895	        0.0000000000	        0.0567304750	       -0.0165699618	        0.0079840773	        0.0010933353	        0.0000000000	        0.0000000000	        0.0000000000	        0.0000000000	        0.0000000000	        0.0000000000	        0.0000000000	        0.0000000000	        0.0000000000	
        0.1746099696	      -47.5240682256	      600.8222158194	      -21.5115336737	        0.2599735406	        0.0000000000	        0.0565105922	       -0.0168302756	        0.0078458803	        0.0010937096	        0.0000000000	        0.0000000000	        0.0000000000	        0.0000000000	        0.0000000000	        0.0000000000	        0.0000000000	        0.0000000000	        0.0000000000	
        0.1870821103	      -42.1730225010	      593.2871697870	      -21.7186682332	        0.2646106306	        0.0000000000	        0.0561763111	       -0.0210812338	        0.0095183332	        0.0013682325	        0.0000000000	        0.0000000000	        0.0000000000	        0.0000000000	        0.0000000000	        0.0000000000	        0.0000000000	        0.0000000000	        0.0000000000	
        0.1995542509	      -37.0561490009	      588.2247862593	      -21.5680766880	        0.2696662453	        0.0000000000	        0.0557332452	       -0.0312102978	        0.0137001602	        0.0019983320	        0.0000000000	        0.0000000000	        0.0000000000	        0.0000000000	        0.0000000000	        0.0000000000	        0.0000000000	        0.0000000000	        0.0000000000	
